# xmcd CD database file
#
# Track frame offsets:
#	150
#	17727
#	36952
#	55100
#	74010
#	95042
#	116980
#	137777
#	155382
#	176242
#	193535
#	214112
#	235905
#
# Disc length: 3432 seconds
#
# Revision: 0
# Processed by: cddbd v1.5.1PL2 Copyright (c) Steve Scherf et al.
# Submitted via: CDex 1.51
#
DISCID=c30d660d
DTITLE=Various Artist - Smooth and Straight
DYEAR=2000
DGENRE=Jazz
TTITLE0=Club 1600          - 1600 Broadway
TTITLE1=Bona Fide           - High Street
TTITLE2=Paul Taylor         -Code Blue
TTITLE3=Marcus Johnson - Out of Somewhere
TTITLE4=Candy Dulfer      - So Cool
TTITLE5=Johnathan Butler - After All This Time
TTITLE6=Club 1600           - Spend The Night
TTITLE7=Sammy Peralta    - Suzette
TTITLE8=Candy Dulfer      - ILU
TTITLE9=Maysa               - Hooked on Your Love
TTITLE10=Greg Karukas   - Stevie(Wonderful)
TTITLE11=Arturo Sandoval - Come Back to Me
TTITLE12=Kim Waters        - Just be My Lady
EXTD=YEAR: 2000
EXTT0=
EXTT1=
EXTT2=
EXTT3=
EXTT4=
EXTT5=
EXTT6=
EXTT7=
EXTT8=
EXTT9=
EXTT10=
EXTT11=
EXTT12=
PLAYORDER=
